<svg width="201" height="114" viewBox="0 0 201 114" fill="none" xmlns="http://www.w3.org/2000/svg">
<path d="M200.083 11.8343C200.19 13.1944 200.267 14.5625 200.313 15.938C200.037 15.9465 199.82 16.1762 199.828 16.4518C199.852 17.2984 199.864 18.1479 199.864 19C199.864 19.8521 199.852 20.7016 199.828 21.5482C199.82 21.8238 200.037 22.0535 200.313 22.062C200.267 23.4375 200.19 24.8055 200.083 26.1657C199.808 26.1433 199.567 26.3474 199.544 26.6221C199.401 28.3183 199.211 30.0019 198.975 31.6717C198.937 31.9446 199.126 32.1972 199.399 32.2365C199.199 33.5965 198.969 34.9473 198.709 36.2882C198.438 36.235 198.176 36.4106 198.122 36.6809C197.789 38.3477 197.41 39.9991 196.986 41.6338C196.917 41.9006 197.077 42.173 197.344 42.2429C196.992 43.5702 196.61 44.8863 196.2 46.1907C195.937 46.1073 195.657 46.2521 195.573 46.5147C195.054 48.1313 194.492 49.7297 193.886 51.3084C193.787 51.5658 193.915 51.8545 194.172 51.9539C193.674 53.2322 193.147 54.4976 192.593 55.7494C192.341 55.6371 192.046 55.7496 191.933 56.0011C191.238 57.5484 190.5 59.0746 189.722 60.5782C189.595 60.8231 189.69 61.1242 189.935 61.2515C189.298 62.4657 188.634 63.665 187.945 64.849C187.707 64.7097 187.402 64.789 187.262 65.0266C186.401 66.4866 185.501 67.9229 184.562 69.334C184.41 69.5635 184.472 69.8733 184.701 70.0265C183.936 71.1632 183.146 72.2835 182.333 73.3867C182.111 73.2225 181.799 73.2683 181.634 73.4894C180.621 74.8472 179.572 76.1786 178.487 77.4823C178.311 77.6942 178.339 78.0089 178.551 78.1856C177.669 79.2337 176.765 80.2637 175.838 81.275C175.636 81.0883 175.32 81.1008 175.133 81.3031C173.983 82.5456 172.799 83.7593 171.582 84.9428C171.385 85.1351 171.38 85.451 171.572 85.6489C170.586 86.5986 169.579 87.5287 168.552 88.4385C168.369 88.2317 168.054 88.2113 167.847 88.3931C166.574 89.5089 165.271 90.5937 163.938 91.6461C163.721 91.817 163.684 92.1308 163.855 92.3474C162.776 93.1902 161.679 94.012 160.563 94.8121C160.403 94.5878 160.092 94.5352 159.867 94.6948C158.488 95.674 157.081 96.62 155.647 97.5317C155.414 97.6797 155.346 97.988 155.493 98.2209C154.335 98.9492 153.161 99.6552 151.97 100.338C151.833 100.099 151.529 100.015 151.289 100.151C149.818 100.986 148.323 101.785 146.804 102.548C146.558 102.672 146.458 102.972 146.581 103.218C145.357 103.826 144.117 104.411 142.863 104.972C142.752 104.72 142.457 104.606 142.205 104.717C140.658 105.4 139.091 106.046 137.503 106.654C137.245 106.753 137.116 107.041 137.214 107.299C135.935 107.781 134.644 108.239 133.34 108.673C133.254 108.411 132.972 108.269 132.71 108.354C131.104 108.88 129.48 109.367 127.839 109.815C127.573 109.888 127.416 110.162 127.488 110.428C126.168 110.782 124.838 111.111 123.497 111.414C123.437 111.145 123.17 110.975 122.901 111.035C121.253 111.399 119.588 111.724 117.91 112.01C117.638 112.056 117.455 112.314 117.5 112.586C116.153 112.808 114.797 113.005 113.432 113.176C113.399 112.903 113.15 112.708 112.876 112.741C111.201 112.943 109.513 113.105 107.813 113.227C107.538 113.247 107.331 113.486 107.35 113.761C105.989 113.852 104.62 113.917 103.244 113.956C103.237 113.681 103.008 113.463 102.733 113.47C101.885 113.49 101.035 113.5 100.182 113.5C99.329 113.5 98.4786 113.49 97.6309 113.47C97.3553 113.463 97.1264 113.681 97.1192 113.956C95.7434 113.917 94.3746 113.852 93.0133 113.761C93.0324 113.486 92.8254 113.247 92.5503 113.227C90.8504 113.105 89.1624 112.943 87.4874 112.741C87.2137 112.708 86.965 112.903 86.9314 113.176C85.5665 113.005 84.2103 112.808 82.8634 112.586C82.909 112.314 82.726 112.056 82.4542 112.01C80.7753 111.724 79.1111 111.399 77.4627 111.035C77.1934 110.975 76.9269 111.145 76.8668 111.414C75.5259 111.111 74.1954 110.782 72.876 110.428C72.948 110.162 72.7912 109.888 72.5252 109.815C70.8836 109.367 69.2595 108.88 67.6539 108.354C67.3918 108.269 67.1099 108.411 67.0236 108.673C65.7198 108.24 64.4282 107.781 63.1497 107.299C63.2476 107.041 63.1186 106.753 62.8611 106.654C61.273 106.046 59.7052 105.4 58.159 104.717C57.9067 104.606 57.6121 104.72 57.5002 104.972C56.2464 104.411 55.0069 103.826 53.7823 103.218C53.9055 102.972 53.8059 102.672 53.5596 102.548C52.0409 101.785 50.5456 100.986 49.0748 100.151C48.835 100.015 48.5304 100.099 48.3938 100.338C47.203 99.6553 46.0285 98.9492 44.8708 98.2209C45.0182 97.988 44.9493 97.6797 44.7166 97.5317C43.2832 96.62 41.8761 95.674 40.4966 94.6949C40.2718 94.5353 39.9603 94.5878 39.8002 94.8121C38.6847 94.012 37.5875 93.1902 36.5091 92.3475C36.6793 92.1308 36.6422 91.817 36.4258 91.6462C35.0929 90.5937 33.7895 89.5089 32.5169 88.3931C32.3095 88.2113 31.9943 88.2317 31.8121 88.4385C30.785 87.5287 29.778 86.5986 28.792 85.649C28.9837 85.451 28.979 85.1351 28.7814 84.9428C27.565 83.7593 26.381 82.5456 25.2309 81.3031C25.0436 81.1008 24.7279 81.0883 24.5252 81.275C23.5988 80.2637 22.6945 79.2337 21.8131 78.1857C22.0245 78.0089 22.053 77.6943 21.8766 77.4823C20.7917 76.1786 19.7423 74.8472 18.7298 73.4894C18.565 73.2684 18.2524 73.2225 18.0311 73.3867C17.2174 72.2836 16.4278 71.1633 15.663 70.0265C15.8921 69.8733 15.954 69.5636 15.8013 69.334C14.8628 67.9229 13.9625 66.4867 13.102 65.0266C12.962 64.7891 12.6562 64.7098 12.4185 64.849C11.7292 63.6651 11.0658 62.4657 10.4289 61.2516C10.6733 61.1243 10.7687 60.8231 10.6419 60.5783C9.86351 59.0746 9.12602 57.5484 8.43083 56.0011C8.31784 55.7497 8.02269 55.6372 7.77107 55.7494C7.21683 54.4977 6.69006 53.2323 6.19145 51.9539C6.44841 51.8545 6.57661 51.5659 6.47785 51.3085C5.87203 49.7297 5.30934 48.1314 4.79114 46.5147C4.707 46.2522 4.42629 46.1074 4.1637 46.1908C3.75352 44.8863 3.3721 43.5702 3.02012 42.2429C3.28662 42.1731 3.44648 41.9007 3.37729 41.6338C2.95346 39.9991 2.57451 38.3478 2.24173 36.6809C2.18776 36.4106 1.92519 36.235 1.65487 36.2882C1.39489 34.9473 1.1646 33.5965 0.964668 32.2365C1.23736 32.1973 1.42698 31.9446 1.38839 31.6717C1.15236 30.0019 0.962316 28.3183 0.819519 26.6221C0.796392 26.3474 0.55531 26.1433 0.280709 26.1657C0.173745 24.8056 0.0969815 23.4375 0.051052 22.062C0.326438 22.0536 0.543231 21.8238 0.535536 21.5482C0.511895 20.7016 0.5 19.8521 0.5 19C0.5 18.1479 0.511895 17.2984 0.535536 16.4518C0.543231 16.1762 0.326438 15.9465 0.0510518 15.938C0.096981 14.5625 0.173744 13.1945 0.280708 11.8343C0.555308 11.8567 0.796391 11.6526 0.819517 11.3779C0.962315 9.68168 1.15236 7.99809 1.38839 6.32833C1.42698 6.05537 1.23735 5.80277 0.964665 5.76347C1.16459 4.40349 1.39488 3.05272 1.65487 1.71181C1.92519 1.76501 2.18775 1.58945 2.24172 1.31911C2.5745 -0.347748 2.95346 -1.99912 3.37728 -3.63377C3.44647 -3.90063 3.28661 -4.17303 3.02011 -4.2429C3.37209 -5.57016 3.75351 -6.88631 4.16369 -8.19072C4.42628 -8.10733 4.70698 -8.25214 4.79113 -8.51466C5.30933 -10.1313 5.87201 -11.7297 6.47783 -13.3084C6.5766 -13.5658 6.44839 -13.8545 6.19143 -13.9539C6.69004 -15.2322 7.21681 -16.4976 7.77105 -17.7494C8.02267 -17.6371 8.31782 -17.7496 8.43081 -18.0011C9.126 -19.5484 9.86349 -21.0745 10.6419 -22.5783C10.7686 -22.8231 10.6733 -23.1242 10.4289 -23.2515C11.0658 -24.4657 11.7292 -25.665 12.4185 -26.849C12.6562 -26.7097 12.962 -26.789 13.102 -27.0265C13.9625 -28.4866 14.8628 -29.9229 15.8013 -31.334C15.954 -31.5635 15.892 -31.8733 15.663 -32.0265C16.4278 -33.1632 17.2174 -34.2835 18.0311 -35.3867C18.2524 -35.2225 18.5649 -35.2683 18.7297 -35.4894C19.7423 -36.8472 20.7917 -38.1786 21.8766 -39.4823C22.0529 -39.6942 22.0244 -40.0088 21.8131 -40.1856C22.6945 -41.2337 23.5988 -42.2637 24.5252 -43.275C24.7279 -43.0883 25.0436 -43.1008 25.2309 -43.3031C26.381 -44.5456 27.5649 -45.7593 28.7814 -46.9428C28.979 -47.1351 28.9836 -47.451 28.792 -47.6489C29.778 -48.5986 30.7849 -49.5286 31.8121 -50.4385C31.9943 -50.2317 32.3095 -50.2113 32.5168 -50.3931C33.7895 -51.5089 35.0929 -52.5937 36.4257 -53.6462C36.6421 -53.817 36.6793 -54.1307 36.5091 -54.3474C37.5874 -55.1902 38.6847 -56.012 39.8002 -56.8121C39.9602 -56.5878 40.2717 -56.5352 40.4966 -56.6948C41.876 -57.674 43.2831 -58.62 44.7166 -59.5317C44.9492 -59.6797 45.0181 -59.988 44.8708 -60.2209C46.0285 -60.9492 47.203 -61.6552 48.3938 -62.3385C48.5303 -62.0991 48.8349 -62.0153 49.0748 -62.1513C50.5455 -62.9856 52.0409 -63.7849 53.5595 -64.5482C53.8059 -64.672 53.9055 -64.9718 53.7823 -65.2183C55.0069 -65.8263 56.2464 -66.4109 57.5002 -66.9716C57.612 -66.7197 57.9067 -66.6058 58.159 -66.7172C59.7052 -67.3996 61.273 -68.0456 62.8611 -68.6539C63.1186 -68.7525 63.2476 -69.0409 63.1496 -69.2985C64.4282 -69.7811 65.7197 -70.2395 67.0236 -70.673C67.1099 -70.4113 67.3918 -70.2687 67.6539 -70.3544C69.2594 -70.8796 70.8836 -71.367 72.5251 -71.8155C72.7911 -71.8881 72.948 -72.1624 72.876 -72.4284C74.1954 -72.782 75.5259 -73.1107 76.8668 -73.4138C76.9269 -73.1448 77.1934 -72.9751 77.4626 -73.0346C79.1111 -73.3989 80.7753 -73.7244 82.4541 -74.0101C82.726 -74.0563 82.909 -74.3139 82.8634 -74.5857C84.2103 -74.8083 85.5665 -75.0054 86.9313 -75.1764C86.9649 -74.9028 87.2136 -74.708 87.4874 -74.741C89.1624 -74.9428 90.8504 -75.1052 92.5503 -75.2272C92.8254 -75.2469 93.0324 -75.4856 93.0133 -75.7605C94.3746 -75.8518 95.7434 -75.9173 97.1192 -75.9565C97.1264 -75.6809 97.3552 -75.4631 97.6309 -75.4697C98.4786 -75.4898 99.329 -75.5 100.182 -75.5C101.035 -75.5 101.885 -75.4898 102.733 -75.4697C103.008 -75.4631 103.237 -75.6809 103.244 -75.9565C104.62 -75.9173 105.989 -75.8518 107.35 -75.7605C107.331 -75.4856 107.538 -75.2469 107.813 -75.2272C109.513 -75.1052 111.201 -74.9428 112.876 -74.741C113.15 -74.708 113.399 -74.9028 113.432 -75.1764C114.797 -75.0054 116.153 -74.8083 117.5 -74.5857C117.455 -74.3139 117.638 -74.0564 117.909 -74.0101C119.588 -73.7244 121.253 -73.3989 122.901 -73.0346C123.17 -72.9751 123.437 -73.1448 123.497 -73.4138C124.838 -73.1107 126.168 -72.7821 127.488 -72.4284C127.416 -72.1624 127.572 -71.8882 127.838 -71.8155C129.48 -71.367 131.104 -70.8796 132.71 -70.3544C132.972 -70.2687 133.254 -70.4113 133.34 -70.673C134.644 -70.2395 135.935 -69.7811 137.214 -69.2985C137.116 -69.0409 137.245 -68.7525 137.503 -68.6539C139.091 -68.0456 140.658 -67.3996 142.205 -66.7172C142.457 -66.6059 142.752 -66.7198 142.863 -66.9716C144.117 -66.4109 145.357 -65.8263 146.581 -65.2184C146.458 -64.9718 146.558 -64.672 146.804 -64.5482C148.323 -63.7849 149.818 -62.9856 151.289 -62.1513C151.529 -62.0153 151.833 -62.0991 151.97 -62.3385C153.161 -61.6553 154.335 -60.9492 155.493 -60.2209C155.345 -59.988 155.414 -59.6797 155.647 -59.5317C157.08 -58.62 158.488 -57.674 159.867 -56.6948C160.092 -56.5353 160.403 -56.5878 160.563 -56.8122C161.679 -56.012 162.776 -55.1902 163.855 -54.3475C163.684 -54.1308 163.721 -53.817 163.938 -53.6462C165.271 -52.5937 166.574 -51.5089 167.847 -50.3931C168.054 -50.2113 168.369 -50.2317 168.552 -50.4385C169.579 -49.5287 170.586 -48.5986 171.572 -47.649C171.38 -47.451 171.385 -47.1351 171.582 -46.9428C172.799 -45.7593 173.983 -44.5456 175.133 -43.3031C175.32 -43.1008 175.636 -43.0883 175.838 -43.275C176.765 -42.2637 177.669 -41.2337 178.551 -40.1857C178.339 -40.0089 178.311 -39.6943 178.487 -39.4823C179.572 -38.1786 180.621 -36.8472 181.634 -35.4894C181.799 -35.2684 182.111 -35.2225 182.333 -35.3867C183.146 -34.2835 183.936 -33.1633 184.701 -32.0265C184.472 -31.8733 184.41 -31.5636 184.562 -31.334C185.501 -29.9229 186.401 -28.4867 187.262 -27.0266C187.402 -26.7891 187.707 -26.7098 187.945 -26.849C188.634 -25.6651 189.298 -24.4657 189.935 -23.2516C189.69 -23.1243 189.595 -22.8231 189.722 -22.5783C190.5 -21.0746 191.238 -19.5484 191.933 -18.0011C192.046 -17.7497 192.341 -17.6372 192.593 -17.7494C193.147 -16.4977 193.674 -15.2323 194.172 -13.9539C193.915 -13.8545 193.787 -13.5659 193.886 -13.3085C194.492 -11.7297 195.054 -10.1314 195.573 -8.5147C195.657 -8.25218 195.937 -8.10738 196.2 -8.19076C196.61 -6.88634 196.992 -5.57019 197.344 -4.24294C197.077 -4.17307 196.917 -3.90067 196.986 -3.6338C197.41 -1.99915 197.789 -0.347771 198.122 1.31908C198.176 1.58944 198.438 1.765 198.709 1.71179C198.969 3.0527 199.199 4.40347 199.399 5.76345C199.126 5.80275 198.937 6.05535 198.975 6.32832C199.211 7.99807 199.401 9.68166 199.544 11.3779C199.567 11.6526 199.808 11.8567 200.083 11.8343Z" stroke="#F28D00" stroke-opacity="0.3" stroke-linecap="round" stroke-dasharray="5 5"/>
</svg>
